# xmcd
#
# Track frame offsets: 
#        150
#        20880
#        45676
#        69998
#        102080
#        126655
#        143597
#        164692
#        187693
#        211135
#        233443
#        257504
#        294467
#
# Disc length: 4250 seconds
#
# Revision: 0
# Processed by: cddbd v1.5.2PL0 Copyright (c) Steve Scherf et al.
# Submitted via: ExactAudioCopy v0.95a4
#
DISCID=b410980d
DTITLE=Junior Wells and Buddy Guy - Yuhbin Chokin Hall - Japan - March 1
DTITLE=975
DYEAR=1975
DGENRE=Blues
TTITLE0=Let Me Love You, Baby
TTITLE1=How Blue Can You Get
TTITLE2=High-Heel Sneakers
TTITLE3=First Time I Met the Blues
TTITLE4=Stone Crazy
TTITLE5=Fever (Work Song)
TTITLE6=Come On Home to Me Baby
TTITLE7=Little By Little
TTITLE8=Don't Go No Further
TTITLE9=Snatch It Back and Hold It
TTITLE10=Help Me Darling
TTITLE11=Hoochie Coochie Man - Someday Baby
TTITLE12=Waterman Blues
EXTD=
EXTT0=
EXTT1=
EXTT2=
EXTT3=
EXTT4=
EXTT5=
EXTT6=
EXTT7=
EXTT8=
EXTT9=
EXTT10=
EXTT11=
EXTT12=
PLAYORDER=
